<svg className="" xmlns="http://www.w3.org/2000/svg" width="19.292" height="21.046"><path fill="#fffae6" d="m20.281 13.733-5.846-3.21 5.846-3.21a.987.987 0 0 0 .379-1.358l-.8-1.387a.987.987 0 0 0-1.366-.35l-5.7 3.458.143-6.668A.987.987 0 0 0 11.947 0h-1.6a.987.987 0 0 0-.986 1.008L9.5 7.675 3.8 4.218a.987.987 0 0 0-1.366.35l-.8 1.387a.987.987 0 0 0 .38 1.358l5.846 3.21-5.846 3.21a.987.987 0 0 0-.379 1.358l.8 1.387a.987.987 0 0 0 1.366.35l5.7-3.458-.143 6.668a.987.987 0 0 0 .986 1.008h1.6a.987.987 0 0 0 .986-1.008l-.143-6.668 5.7 3.457a.987.987 0 0 0 1.366-.35l.8-1.387a.986.986 0 0 0-.379-1.358Z" transform="translate(-1.5)"></path></svg>