<svg width="34" height="34" viewBox="0 0 34 34" fill="none" xmlns="http://www.w3.org/2000/svg">
<path d="M28.904 23.1425C27.9174 24.1291 26.3176 24.1291 25.331 23.1425L20.9751 18.7864C19.9883 17.7998 19.9883 16.2001 20.9751 15.2135L25.331 10.8575C26.3176 9.87085 27.9174 9.87085 28.904 10.8575L33.26 15.2135C34.2466 16.2001 34.2466 17.7998 33.26 18.7864L28.904 23.1425ZM8.66897 23.1425C7.68232 24.1291 6.08261 24.1291 5.09595 23.1425L0.739998 18.7864C-0.246665 17.7998 -0.246667 16.2001 0.739997 15.2135L5.09595 10.8575C6.08261 9.87085 7.68232 9.87085 8.66897 10.8575L13.0249 15.2135C14.0116 16.2001 14.0116 17.7998 13.0249 18.7864L8.66897 23.1425ZM18.7866 33.2599C17.7998 34.2467 16.2001 34.2467 15.2135 33.2599L10.8575 28.904C9.87085 27.9174 9.87085 26.3176 10.8575 25.331L15.2135 20.9751C16.2001 19.9883 17.7998 19.9883 18.7866 20.9751L23.1425 25.331C24.1291 26.3176 24.1291 27.9174 23.1425 28.904L18.7866 33.2599ZM18.7866 13.0249C17.7998 14.0116 16.2001 14.0116 15.2135 13.0249L10.8575 8.66898C9.87085 7.68232 9.87085 6.08262 10.8575 5.09595L15.2135 0.739999C16.2001 -0.246665 17.7998 -0.246667 18.7866 0.739997L23.1425 5.09595C24.1291 6.08262 24.1291 7.68232 23.1425 8.66898L18.7866 13.0249Z" fill="black"/>
</svg>
