<svg width="172" height="168" viewBox="0 0 172 168" fill="none" xmlns="http://www.w3.org/2000/svg">
<path d="M168.688 0.687904H146.75C146.75 0.687904 0.375159 147 0.187659 147.157V164.813C0.183481 165.224 0.261458 165.633 0.417024 166.014C0.57259 166.395 0.802619 166.741 1.09364 167.032C1.38466 167.323 1.73082 167.553 2.11185 167.709C2.49288 167.864 2.90112 167.942 3.31266 167.938H20.7814C20.9064 167.688 171.281 17.2817 171.281 17.2817C171.444 17.1193 171.622 16.9728 171.813 16.8442V3.8129C171.817 3.40136 171.739 2.99312 171.583 2.61209C171.428 2.23106 171.198 1.8849 170.907 1.59388C170.616 1.30286 170.27 1.07283 169.888 0.917268C169.507 0.761702 169.099 0.683725 168.688 0.687904ZM129.5 167.938H168.688C169.099 167.942 169.507 167.864 169.888 167.709C170.27 167.553 170.616 167.323 170.907 167.032C171.198 166.741 171.428 166.395 171.583 166.014C171.739 165.633 171.817 165.224 171.813 164.813V125.625C168.122 129.329 129.5 167.938 129.5 167.938ZM79.5002 167.938H120.781C120.906 167.688 171.625 116.969 171.813 116.844V75.6254L79.5002 167.938ZM29.5002 167.938H70.7814C70.9064 167.688 171.625 66.9692 171.813 66.8442V25.6254L29.5002 167.938ZM137.875 0.687904H96.7502C90.6283 6.8129 0.375159 97.0004 0.187659 97.1567V138.375L137.875 0.687904ZM87.8752 0.687904H46.7502C31.2415 16.1897 15.7206 31.6793 0.187659 47.1567V88.3754L87.8752 0.687904ZM37.8752 0.687904H3.31266C2.90112 0.683725 2.49288 0.761702 2.11185 0.917268C1.73082 1.07283 1.38466 1.30286 1.09364 1.59388C0.802619 1.8849 0.57259 2.23106 0.417024 2.61209C0.261458 2.99312 0.183481 3.40136 0.187659 3.8129V38.3754C4.15016 34.4067 37.8752 0.687904 37.8752 0.687904Z" fill="black"/>
</svg>
