<?xml version="1.0" standalone="no"?>
<!DOCTYPE svg PUBLIC "-//W3C//DTD SVG 20010904//EN"
 "http://www.w3.org/TR/2001/REC-SVG-20010904/DTD/svg10.dtd">
<svg version="1.0" xmlns="http://www.w3.org/2000/svg"
 width="256.000000pt" height="256.000000pt" viewBox="0 0 256.000000 256.000000"
 preserveAspectRatio="xMidYMid meet">

<g transform="translate(0.000000,256.000000) scale(0.100000,-0.100000)"
fill="#000000" stroke="none">
<path d="M303 2266 c-40 -18 -46 -41 -42 -150 4 -78 6 -87 34 -117 38 -40 82
-59 137 -59 l42 0 -92 -94 c-51 -51 -99 -109 -107 -129 -34 -82 -9 -196 54
-250 40 -33 129 -60 168 -51 23 5 7 -15 -89 -112 -67 -68 -124 -135 -133 -156
-8 -21 -15 -62 -15 -93 0 -113 72 -192 192 -210 l47 -7 -72 -79 c-40 -44 -84
-101 -100 -127 -40 -69 -67 -165 -67 -239 0 -55 4 -67 25 -88 31 -32 91 -33
195 -4 99 27 168 68 256 151 l72 68 4 -55 c13 -150 168 -229 317 -160 37 18
81 54 145 120 51 52 96 95 100 95 5 0 6 -10 3 -22 -10 -35 12 -102 46 -143 60
-73 158 -94 259 -55 39 15 74 42 140 107 l88 88 0 -33 c0 -70 65 -151 138
-172 20 -5 74 -10 120 -10 75 0 85 2 107 25 23 22 25 32 25 115 0 54 -6 104
-14 123 -24 57 -109 107 -184 107 l-35 0 105 108 c79 80 109 119 117 148 43
153 -37 282 -180 292 l-60 5 114 116 c128 129 143 158 135 263 -7 102 -78 172
-189 185 l-50 6 121 123 120 122 0 106 c0 92 -3 109 -19 125 -31 31 -84 36
-179 17 -145 -29 -215 -65 -344 -178 -75 -66 -81 -70 -76 -43 10 50 -20 126
-67 171 -55 53 -114 70 -193 53 -53 -11 -63 -18 -179 -132 l-123 -120 0 35 c0
130 -123 243 -243 223 -63 -11 -94 -30 -179 -113 -73 -71 -78 -74 -78 -48 0
43 -37 104 -80 132 -32 22 -54 27 -122 30 -59 3 -92 0 -115 -10z"/>
</g>
</svg>
